<svg data-v-fde0c5aa="" xmlns="http://www.w3.org/2000/svg" viewBox="0 0 300 300" class="icon"><!----><defs data-v-fde0c5aa=""><!----></defs><rect data-v-fde0c5aa="" fill="#44158F" x="0" y="0" width="300px" height="300px" class="logo-background-square"></rect><!----><defs data-v-fde0c5aa=""><!----></defs><g data-v-fde0c5aa="" id="6b1d4c38-1f3a-416d-924a-ccd77a570022" fill="#14D9D9" stroke="none" transform="matrix(2.2502710820690965,0,0,2.2502710820690965,38.611581437579716,37.7497289179309)"><path d="M49.5 98.766L7 62.277V14.105L19.211 1h60.004L92 14.082v48.195L49.5 98.766zM10.301 60.761L49.5 94.415l39.198-33.654V15.427L77.826 4.301H20.647L10.301 15.405v45.356zm58.042 13.96h-38.03V62.213L18.279 50.452v-24.92l13.024-12.427h36.06l12.81 12.435v24.904l-11.83 11.762v12.515zM50.876 71.42h14.166V60.833L76.871 49.07V28.908l-8.309 4.156-.252 12.5H56.928v8.113h1.822l-7.874 9.665v8.078zm-17.262 0h13.96v-8.109l-7.313-9.634h1.675v-8.113H30.313V33.179l-8.733-4.292v20.176l12.034 11.761V71.42zm13.297-14.441l2.36 3.107 2.532-3.107h-4.892zm-1.674-3.302h8.389V36.702l.999-.359 21.078-10.541-9.68-9.397H32.625L22.779 25.8l21.453 10.54 1.005.362v16.975zm11.691-11.414h8.147l.125-6.229-8.272 2.987v3.242zm-23.314 0h8.322v-3.242l-8.322-3.005v6.247zm49.575-20.645L71.636 9.858l2.355-2.313 11.553 11.759-2.355 2.314zm-67.791 0l-2.355-2.314L24.597 7.545l2.355 2.313-11.554 11.76z"></path></g><!----></svg>