<svg data-v-fde0c5aa="" xmlns="http://www.w3.org/2000/svg" viewBox="0 0 300 300" class="iconAboveSlogan"><!----><defs data-v-fde0c5aa=""><!----></defs><rect data-v-fde0c5aa="" fill="#44158F" x="0" y="0" width="300px" height="300px" class="logo-background-square"></rect><defs data-v-fde0c5aa=""><!----></defs><g data-v-fde0c5aa="" id="9934640f-68a7-4d7b-9ce6-a3c60954630a" fill="#ffffff" transform="matrix(2.5447783562653257,0,0,2.5447783562653257,18.778506340454847,147.44203754117854)"><path d="M0.48 9.18C0.48 11.98 2.73 14.15 5.63 14.15C6.97 14.15 8.44 13.64 9.44 12.88L9.44 9.27L7.99 9.27L7.99 12.00C7.29 12.42 6.47 12.67 5.74 12.67C3.74 12.67 2.16 11.14 2.16 9.18C2.16 7.24 3.72 5.71 5.73 5.71C6.75 5.71 7.80 6.13 8.55 6.83L9.49 5.61C8.53 4.77 7.13 4.24 5.73 4.24C2.76 4.24 0.48 6.38 0.48 9.18ZM11.75 14.08L13.36 14.08L13.36 3.70L11.75 3.70ZM15.11 10.37C15.11 12.61 16.62 14.14 18.91 14.14C20.20 14.14 21.27 13.68 21.99 12.88L21.14 11.97C20.59 12.53 19.85 12.84 19.04 12.84C17.86 12.84 16.98 12.12 16.73 10.98L22.36 10.98C22.55 8.29 21.49 6.58 18.87 6.58C16.66 6.59 15.11 8.12 15.11 10.37ZM16.70 9.80C16.88 8.61 17.71 7.87 18.89 7.87C20.10 7.87 20.90 8.60 20.96 9.80ZM22.78 6.64L25.86 13.97L25.61 14.53C25.35 15.09 24.96 15.36 24.47 15.36C24.14 15.36 23.86 15.25 23.51 14.99L22.82 16.24C23.34 16.67 23.87 16.87 24.54 16.87C25.66 16.87 26.50 16.28 26.96 15.11L30.35 6.64L28.74 6.64L26.67 12.28L24.44 6.64ZM30.77 10.37C30.77 12.61 32.31 14.14 34.52 14.14C35.94 14.14 37.02 13.64 37.69 12.75L36.79 11.86C36.29 12.45 35.53 12.75 34.59 12.75C33.31 12.75 32.38 11.79 32.38 10.37C32.38 8.96 33.31 7.99 34.59 7.99C35.49 7.98 36.20 8.30 36.72 8.83L37.60 7.80C36.92 7.01 35.87 6.58 34.52 6.58C32.31 6.58 30.77 8.12 30.77 10.37ZM38.67 10.36C38.67 12.60 40.25 14.14 42.56 14.14C44.86 14.14 46.44 12.60 46.44 10.36C46.44 8.11 44.86 6.58 42.56 6.58C40.25 6.58 38.67 8.11 38.67 10.36ZM40.28 10.37C40.28 8.95 41.22 7.97 42.56 7.97C43.89 7.97 44.83 8.95 44.83 10.37C44.83 11.82 43.89 12.80 42.56 12.80C41.22 12.80 40.28 11.82 40.28 10.37ZM48.12 14.08L49.73 14.08L49.73 10.12C49.84 8.96 50.61 8.11 51.84 8.09C52.96 8.09 53.63 8.78 53.63 9.90L53.63 14.08L55.24 14.08L55.24 9.45C55.24 7.67 54.21 6.58 52.47 6.58C51.21 6.58 50.26 7.03 49.73 8.06L49.73 6.64L48.12 6.64ZM60.03 14.08L61.96 14.08L64.60 10.39L67.24 14.08L69.22 14.08L65.65 8.99L68.94 4.28L67.00 4.28L64.60 7.69L62.20 4.28L60.28 4.28L63.60 9.06ZM70.08 11.84C70.08 13.16 71.09 14.15 72.70 14.15C73.78 14.15 74.63 13.83 75.17 13.17L75.17 14.08L76.75 14.08L76.73 9.20C76.72 7.56 75.64 6.58 73.72 6.58C72.31 6.58 71.55 6.90 70.52 7.52L71.18 8.64C71.92 8.13 72.66 7.88 73.37 7.88C74.55 7.88 75.15 8.44 75.15 9.38L75.15 9.60L72.90 9.60C71.11 9.62 70.08 10.49 70.08 11.84ZM71.60 11.77C71.60 11.06 72.09 10.78 73.14 10.78L75.15 10.78L75.15 11.47C75.07 12.28 74.19 12.88 73.04 12.88C72.14 12.88 71.60 12.45 71.60 11.77ZM77.73 6.64L80.61 14.08L82.28 14.08L85.13 6.64L83.52 6.64L81.48 12.50L79.41 6.64ZM86.11 4.51C86.11 5.07 86.52 5.47 87.05 5.47C87.58 5.47 87.99 5.07 87.99 4.51C87.99 3.93 87.58 3.53 87.05 3.53C86.52 3.53 86.11 3.93 86.11 4.51ZM86.25 14.08L87.85 14.08L87.85 6.64L86.25 6.64ZM89.53 10.37C89.53 12.61 91.04 14.14 93.34 14.14C94.63 14.14 95.69 13.68 96.42 12.88L95.56 11.97C95.02 12.53 94.28 12.84 93.46 12.84C92.29 12.84 91.41 12.12 91.15 10.98L96.78 10.98C96.98 8.29 95.91 6.58 93.30 6.58C91.08 6.59 89.53 8.12 89.53 10.37ZM91.13 9.80C91.31 8.61 92.13 7.87 93.31 7.87C94.53 7.87 95.33 8.60 95.38 9.80ZM98.46 14.08L100.07 14.08L100.07 10.19C100.20 8.92 101.15 8.04 102.65 8.12L102.65 6.58C101.47 6.58 100.58 7.11 100.07 8.12L100.07 6.64L98.46 6.64Z"></path></g><defs data-v-fde0c5aa=""><!----></defs><g data-v-fde0c5aa="" id="ecd7fe74-bca2-457f-9ecc-86d55e83a91e" stroke="none" fill="#14D9D9" transform="matrix(0.49159222267109143,0,0,0.49159222267109143,125.66618497778099,89.8725081717392)"><path d="M49.5 98.766L7 62.277V14.105L19.211 1h60.004L92 14.082v48.195L49.5 98.766zM10.301 60.761L49.5 94.415l39.198-33.654V15.427L77.826 4.301H20.647L10.301 15.405v45.356zm58.042 13.96h-38.03V62.213L18.279 50.452v-24.92l13.024-12.427h36.06l12.81 12.435v24.904l-11.83 11.762v12.515zM50.876 71.42h14.166V60.833L76.871 49.07V28.908l-8.309 4.156-.252 12.5H56.928v8.113h1.822l-7.874 9.665v8.078zm-17.262 0h13.96v-8.109l-7.313-9.634h1.675v-8.113H30.313V33.179l-8.733-4.292v20.176l12.034 11.761V71.42zm13.297-14.441l2.36 3.107 2.532-3.107h-4.892zm-1.674-3.302h8.389V36.702l.999-.359 21.078-10.541-9.68-9.397H32.625L22.779 25.8l21.453 10.54 1.005.362v16.975zm11.691-11.414h8.147l.125-6.229-8.272 2.987v3.242zm-23.314 0h8.322v-3.242l-8.322-3.005v6.247zm49.575-20.645L71.636 9.858l2.355-2.313 11.553 11.759-2.355 2.314zm-67.791 0l-2.355-2.314L24.597 7.545l2.355 2.313-11.554 11.76z"></path></g><defs data-v-fde0c5aa=""><!----></defs><g data-v-fde0c5aa="" id="214b9f03-6bb1-4e0e-a783-e481eb5e8b5e" fill="#ffffff" transform="matrix(0.8822331858885436,0,0,0.8822331858885436,52.2529747068995,198.21097980626493)"><path d="M3.96 11.69L0.73 2.80L0.28 2.80L3.99 12.95L6.93 3.79L9.87 12.95L13.58 2.80L13.13 2.80L9.90 11.69L6.93 2.45ZM22.54 7.48L26.88 7.48L26.88 7.08L22.54 7.08L22.54 3.21L27.16 3.21L27.16 2.80L22.12 2.80L22.12 12.60L27.16 12.60L27.16 12.19L22.54 12.19ZM36.54 2.80L36.54 12.60L38.64 12.60C40.77 12.60 41.83 11.69 41.83 9.87C41.83 9.19 41.60 8.62 41.13 8.17C40.65 7.72 40.09 7.41 39.42 7.25C40.66 7.02 41.27 6.30 41.27 5.11C41.27 4.40 41.02 3.84 40.51 3.42C40.00 3.01 39.28 2.80 38.36 2.80ZM36.96 7.08L36.96 3.21L38.36 3.21C39.13 3.21 39.74 3.37 40.19 3.71C40.63 4.05 40.85 4.51 40.85 5.11C40.85 5.60 40.72 5.99 40.45 6.31C40.18 6.62 39.87 6.83 39.52 6.93C39.16 7.03 38.78 7.08 38.36 7.08ZM36.96 7.48L38.64 7.48C39.04 7.48 39.44 7.56 39.84 7.72C40.25 7.88 40.60 8.16 40.91 8.54C41.22 8.92 41.37 9.37 41.37 9.87C41.37 11.42 40.46 12.19 38.64 12.19L36.96 12.19ZM62.13 2.80L62.13 12.60L64.51 12.60C65.93 12.60 67.07 12.15 67.92 11.25C68.78 10.35 69.20 9.17 69.20 7.70C69.20 6.23 68.78 5.05 67.92 4.15C67.07 3.25 65.93 2.80 64.51 2.80ZM62.55 3.22L64.51 3.22C65.81 3.22 66.84 3.63 67.61 4.46C68.37 5.28 68.75 6.37 68.75 7.70C68.75 9.09 68.38 10.18 67.62 10.98C66.86 11.78 65.83 12.18 64.51 12.18L62.55 12.18ZM78.58 7.48L82.92 7.48L82.92 7.08L78.58 7.08L78.58 3.21L83.20 3.21L83.20 2.80L78.16 2.80L78.16 12.60L83.20 12.60L83.20 12.19L78.58 12.19ZM95.80 12.03L92.02 2.80L91.53 2.80L95.80 12.95L100.07 2.80L99.58 2.80ZM108.96 7.48L113.30 7.48L113.30 7.08L108.96 7.08L108.96 3.21L113.58 3.21L113.58 2.80L108.54 2.80L108.54 12.60L113.58 12.60L113.58 12.19L108.96 12.19ZM122.96 2.80L122.96 12.60L127.44 12.60L127.44 12.19L123.38 12.19L123.38 2.80ZM135.28 7.70C135.28 6.38 135.69 5.29 136.50 4.41C137.31 3.53 138.34 3.09 139.58 3.09C140.82 3.09 141.85 3.53 142.66 4.41C143.47 5.29 143.88 6.38 143.88 7.70C143.88 9.02 143.47 10.11 142.66 10.99C141.85 11.87 140.82 12.31 139.58 12.31C138.34 12.31 137.31 11.87 136.50 10.99C135.69 10.11 135.28 9.02 135.28 7.70ZM134.86 7.70C134.86 9.16 135.31 10.36 136.20 11.30C137.09 12.24 138.22 12.71 139.58 12.71C140.94 12.71 142.07 12.24 142.96 11.30C143.85 10.36 144.30 9.16 144.30 7.70C144.30 6.24 143.85 5.04 142.96 4.10C142.07 3.16 140.94 2.69 139.58 2.69C138.22 2.69 137.09 3.16 136.20 4.10C135.31 5.04 134.86 6.24 134.86 7.70ZM153.26 2.80L153.26 12.60L153.68 12.60L153.68 8.48L155.36 8.48C156.32 8.48 157.09 8.23 157.66 7.73C158.24 7.22 158.52 6.53 158.52 5.64C158.52 4.76 158.24 4.06 157.66 3.56C157.09 3.05 156.32 2.80 155.36 2.80ZM153.68 3.21L155.36 3.21C156.22 3.21 156.89 3.41 157.37 3.83C157.85 4.24 158.09 4.85 158.09 5.64C158.09 6.44 157.85 7.04 157.37 7.45C156.89 7.87 156.22 8.08 155.36 8.08L153.68 8.08ZM175.73 3.86L176.58 12.60L177.00 12.60L175.95 2.45L172.03 10.70L168.11 2.45L167.06 12.60L167.48 12.60L168.34 3.86L172.03 11.69ZM186.52 7.48L190.86 7.48L190.86 7.08L186.52 7.08L186.52 3.21L191.14 3.21L191.14 2.80L186.10 2.80L186.10 12.60L191.14 12.60L191.14 12.19L186.52 12.19ZM207.45 2.80L207.45 11.79L199.96 2.45L199.96 12.60L200.38 12.60L200.38 3.61L207.87 12.95L207.87 2.80ZM215.85 3.21L218.37 3.21L218.37 12.60L218.79 12.60L218.79 3.21L221.31 3.21L221.31 2.80L215.85 2.80Z"></path></g></svg>